<?xml version="1.0" encoding="UTF-8"?>
<svg id="Layer_2" data-name="Layer 2" xmlns="http://www.w3.org/2000/svg" viewBox="0 0 41.59 39.82">
  <g id="Layer_1-2" data-name="Layer 1">
    <path d="M17.78,20.79c-.76,0-1.38.62-1.38,1.38v16.26c0,1.2,1.43,1.83,2.32,1.02l6.03-5.55c.28-.26.45-.63.45-1.02v-10.71c0-.76.62-1.38,1.38-1.38h13.63c.76,0,1.38-.62,1.38-1.38v-5.33c0-.76-.62-1.38-1.38-1.38h-6.34c-.37,0-.72.15-.98.41l-7.69,7.69V1.38c0-.76-.62-1.38-1.38-1.38h-6.03c-.76,0-1.38.62-1.38,1.38v9.93c0,.76-.62,1.38-1.38,1.38H1.38c-.76,0-1.38.62-1.38,1.38v5.33c0,.76.62,1.38,1.38,1.38h6.34c.37,0,.72-.15.98-.41l7.69-7.69,7.58,6.98c.43.4.15,1.12-.44,1.12h-5.76Z"/>
  </g>
</svg>